# xmcd CD database file
#
# Track frame offsets:
#	150
#	18757
#	49660
#	78235
#	99985
#	128262
#	152940
#	176637
#	205062
#	224115
#	249312
#	278790
#
# Disc length: 4124 seconds
#
# Revision: 0
# Processed by: cddbd v1.5.1PL0 Copyright (c) Steve Scherf et al.
# Submitted via: CDex 1.51
#
DISCID=98101a0c
DTITLE=Manfredo Fest - Fascinating Rythm
DYEAR=1996
DGENRE=Jazz
TTITLE0=Fascinating Rythm
TTITLE1=Berimbau
TTITLE2=Samba Do Avião (Jet Samba)
TTITLE3=Marcia
TTITLE4=Summertime
TTITLE5=Samba Do Soho (Soho's Samba)
TTITLE6=Spring Can Really Hang You Up The Most
TTITLE7=Triste
TTITLE8=Route 66 (Get Your Kicks on)
TTITLE9=Tenderly
TTITLE10=The Eyes Of Love
TTITLE11=Arigó
EXTD=YEAR: 1996
EXTT0=
EXTT1=
EXTT2=
EXTT3=
EXTT4=
EXTT5=
EXTT6=
EXTT7=
EXTT8=
EXTT9=
EXTT10=
EXTT11=
PLAYORDER=
